<?xml version="1.0" encoding="UTF-8"?>
<svg version="1.1" xmlns="http://www.w3.org/2000/svg" width="1024" height="1024">
<path d="M0 0 C337.92 0 675.84 0 1024 0 C1024 337.92 1024 675.84 1024 1024 C686.08 1024 348.16 1024 0 1024 C0 686.08 0 348.16 0 0 Z " fill="#FDFDFD" transform="translate(0,0)"/>
<path d="M0 0 C1.7359019 -0.00668677 1.7359019 -0.00668677 3.50687253 -0.01350862 C5.41511224 -0.01323207 5.41511224 -0.01323207 7.36190224 -0.01294994 C8.72638829 -0.0162498 10.09087336 -0.01997563 11.45535719 -0.02409142 C15.20865854 -0.03410521 18.96194388 -0.0378272 22.71525669 -0.04048073 C26.76169895 -0.04438547 30.80812857 -0.05396351 34.85456276 -0.0626936 C44.62682697 -0.08245032 54.39909221 -0.09252194 64.1713714 -0.10142139 C68.77202862 -0.10580445 73.37268468 -0.11117111 77.97334099 -0.11641026 C93.26355628 -0.13341962 108.55377085 -0.1479152 123.84399414 -0.155159 C127.8112774 -0.15706891 131.77856065 -0.15898925 135.74584389 -0.16094494 C137.22493032 -0.16167055 137.22493032 -0.16167055 138.73389728 -0.16241082 C154.71811204 -0.17071651 170.70225208 -0.19606381 186.68643419 -0.22852562 C203.09211134 -0.2615723 219.49775048 -0.27960548 235.9034611 -0.28280324 C245.11677092 -0.28497025 254.32997171 -0.29374713 263.54324913 -0.31926441 C271.38702385 -0.34093854 279.23066304 -0.34903798 287.07446431 -0.33929763 C291.07726808 -0.33474372 295.07979203 -0.33670222 299.08255768 -0.35605907 C302.7467096 -0.37362573 306.41037621 -0.37274652 310.07453282 -0.35716178 C312.02840311 -0.3536452 313.98227811 -0.36986025 315.93607843 -0.38676625 C326.4900323 -0.30886205 326.4900323 -0.30886205 331.35521889 4.13422108 C332.22115638 4.91802521 333.08709387 5.70182934 333.97927189 6.50938511 C334.86431935 7.39497734 335.74936682 8.28056957 336.6612339 9.19299793 C337.40880537 9.93694777 337.40880537 9.93694777 338.17147928 10.6959269 C339.82726176 12.34610889 341.47584624 14.00329248 343.124506 15.66058826 C344.31556696 16.8505754 345.50706096 18.04012923 346.69895363 19.22928333 C349.92669621 22.45218918 353.14817034 25.68129402 356.36841083 28.91169357 C359.74642314 32.29851203 363.12972933 35.6800346 366.51233864 39.06226063 C372.19409449 44.74495237 377.87196898 50.43149874 383.54735756 56.1205492 C390.09574893 62.68464634 396.64933208 69.2435224 403.20594782 75.79940391 C410.20094575 82.79372446 417.19212239 89.79185511 424.18219495 96.79109764 C426.18914026 98.80016743 428.196789 100.80853195 430.20459747 102.81673908 C433.36950938 105.9826612 436.53183842 109.15114193 439.6922493 112.32155704 C440.84788634 113.48009632 442.0043495 114.63781227 443.16172981 115.79461002 C448.58766768 121.21885123 453.97006959 126.63641148 458.92947674 132.49903202 C461.77844196 135.766521 464.9895744 138.70023037 468.16771889 141.6439867 C468.66787514 142.12674061 469.16803139 142.60949451 469.68334389 143.10687733 C470.12581459 143.52203602 470.56828529 143.93719471 471.0241642 144.36493397 C475.44344712 150.23920823 475.6919039 155.44371796 475.37475014 162.50531483 C475.34343438 164.31450518 475.31554455 166.12375751 475.29076576 167.9330492 C475.23941254 170.75796763 475.16753376 173.57571218 475.03661537 176.39813709 C474.15007766 186.61641259 474.15007766 186.61641259 477.69466591 195.74002552 C481.51760044 198.79089748 485.84501701 200.35391064 490.35521889 202.13422108 C511.85489395 216.05967102 537.1019647 239.00520165 543.35521889 265.13422108 C543.80084001 268.72987447 544.01725509 272.33074699 544.23021889 275.94672108 C544.68963961 283.49264011 545.34677335 288.01132382 551.21459389 293.26703358 C551.92100014 293.88320545 552.62740639 294.49937733 553.35521889 295.13422108 C571.29281335 317.27841955 579.49579998 343.39560672 577.04662514 371.70062733 C575.08411162 386.13291699 569.92614374 401.26143584 559.98021889 412.13422108 C555.78359892 417.07047521 555.65280994 421.02273582 555.54271889 427.35297108 C554.42214154 449.95128082 541.76466748 469.72007039 525.60521889 484.75922108 C518.97908523 490.36696692 511.30176985 494.74318327 503.48021889 498.44672108 C498.72574026 501.00615756 496.70117701 504.85614822 494.02318764 509.41547108 C489.47971146 516.82123085 483.36898323 520.95508604 475.35521889 524.13422108 C474.69521889 524.13422108 474.03521889 524.13422108 473.35521889 524.13422108 C473.36188072 524.74650562 473.36854256 525.35879017 473.37540627 525.98962879 C473.44224432 532.41456267 473.48721881 538.83939634 473.52001381 545.26459217 C473.53501602 547.65623461 473.55542435 550.04784993 473.58153725 552.43939686 C473.61829932 555.89503172 473.63503153 559.3503 473.64818764 562.80609608 C473.66367149 563.8597234 473.67915535 564.91335072 473.69510841 565.99890614 C473.6977329 577.81470113 471.07981626 587.39887904 464.35521889 597.13422108 C463.77771889 598.02109608 463.20021889 598.90797108 462.60521889 599.82172108 C452.27565762 610.4382146 439.05294351 614.00193167 424.65209389 614.69281483 C423.78477638 614.73506687 422.91745888 614.77731892 422.02385902 614.82085133 C410.55497365 615.32341521 399.08232105 615.24163958 387.60521889 615.19672108 C385.33568864 615.19168922 383.0661573 615.18712933 380.79662514 615.1830492 C375.31613185 615.17219285 369.83568076 615.15559203 364.35521889 615.13422108 C364.35997734 615.74774433 364.36473579 616.36126759 364.36963844 616.99338245 C364.37333946 617.80056721 364.37704048 618.60775196 364.38085365 619.43939686 C364.38561211 620.23854511 364.39037056 621.03769337 364.39527321 621.86105824 C364.14571894 636.02376199 355.5684046 646.46291339 345.90600014 655.8861742 C344.88958837 656.86522509 343.87265856 657.84373845 342.85521889 658.82172108 C340.84047648 660.77955167 338.83132905 662.74304329 336.82396889 664.70843983 C336.0991507 665.41607471 336.0991507 665.41607471 335.35968971 666.13800526 C332.0756528 669.36493433 329.00662319 672.71110641 326.01879311 676.21063709 C315.59310922 688.26581222 304.93346932 700.45634697 288.28490639 702.37250233 C279.97628735 702.67262355 272.45963696 700.19370746 265.98021889 694.94672108 C257.78836027 686.95588967 256.25025132 678.12543929 254.66381264 667.22601795 C254.21245929 664.16652785 253.68783213 661.12016257 253.16771889 658.07172108 C252.89601441 656.42603133 252.62480133 654.78025976 252.35521889 653.13422108 C251.77771889 652.98984608 251.20021889 652.84547108 250.60521889 652.69672108 C249.86271889 652.51109608 249.12021889 652.32547108 248.35521889 652.13422108 C247.7028878 652.03412739 247.05055672 651.9340337 246.37845802 651.83090687 C243.7169992 650.91445537 243.16761632 649.81897388 241.73339272 647.42474842 C232.71487253 633.21037336 220.31334228 616.49831119 203.30607033 611.53637409 C191.15113816 608.83732291 178.38521194 609.59148505 166.04271889 610.19672108 C165.12766075 610.24140774 164.21260262 610.2860944 163.26981544 610.3321352 C154.39049946 610.78413828 145.51853234 611.3406284 136.64953041 611.96161366 C112.06929739 613.638974 87.48616347 613.51549608 62.86259747 613.42142677 C54.61059181 613.38992993 46.35956321 613.38945181 38.10756493 613.42364693 C32.92675055 613.44501232 27.74593058 613.45112018 22.56507683 613.45584011 C20.14234245 613.4601295 17.71961128 613.46891512 15.29691124 613.48250866 C11.95688769 613.49951507 8.61738645 613.49744744 5.27733803 613.49066639 C4.31212573 613.49987142 3.34691343 613.50907644 2.35245228 613.51856041 C-9.92235639 613.44369063 -18.92194175 609.37433467 -27.87524986 601.06390858 C-37.13294873 591.37198368 -39.8016975 580.98352846 -39.77900219 567.9464283 C-39.78135442 567.02601388 -39.78370665 566.10559947 -39.78613016 565.15729371 C-39.79280569 562.06229545 -39.79236237 558.96733932 -39.79195213 555.87233448 C-39.79525164 553.63522852 -39.79897739 551.39812316 -39.80309361 549.16101855 C-39.81311154 543.00475593 -39.81683006 536.84850306 -39.81948292 530.69223344 C-39.82298573 524.73735633 -39.831133 518.78248597 -39.83902686 512.82761345 C-39.85985818 496.87505098 -39.87033851 480.92248667 -39.87915647 464.96991377 C-39.88336436 457.42269325 -39.88858612 449.87547353 -39.893841 442.32825368 C-39.91172896 416.49088466 -39.92672529 390.65351541 -39.93416119 364.81614113 C-39.93463594 363.19448961 -39.93511183 361.57283809 -39.93558885 359.95118658 C-39.93582522 359.14700034 -39.9360616 358.34281411 -39.93630514 357.5142586 C-39.93750633 353.43990689 -39.93872178 349.36555519 -39.93994713 345.2912035 C-39.94018728 344.48263958 -39.94042743 343.67407567 -39.94067486 342.84100982 C-39.94856896 316.62149151 -39.97200424 290.40201842 -40.00450307 264.18251986 C-40.03880415 236.45836733 -40.05851251 208.73424126 -40.06180543 181.01006716 C-40.06222296 177.96640121 -40.06270253 174.92273527 -40.06322861 171.87906933 C-40.0633518 171.12963927 -40.06347499 170.38020922 -40.06360192 169.60806916 C-40.06593341 157.55061187 -40.08159036 145.49320715 -40.10207045 133.43576859 C-40.12233039 121.31564943 -40.12780493 109.19559337 -40.11829982 97.07546041 C-40.11354444 90.51011484 -40.11569291 83.94490609 -40.13506126 77.3795805 C-40.15264199 71.36835629 -40.15173631 65.3574278 -40.13616397 59.34620067 C-40.13378021 57.17257464 -40.13815108 54.99892841 -40.14999262 52.82533333 C-40.23518261 36.15440471 -38.51932528 23.86651166 -26.80103111 11.13031483 C-19.46194155 4.16720321 -10.10950931 0.01806841 0 0 Z " fill="#071B5C" transform="translate(262.6447811126709,162.86577892303467)"/>
<path d="M0 0 C0.86044922 -0.02239746 1.72089844 -0.04479492 2.60742188 -0.06787109 C8.11350522 -0.04748614 11.46805071 0.58337099 15.6875 4.4375 C22.02651791 11.27526739 21.40069816 19.36807514 21.34692383 28.125 C21.35538538 29.71237951 21.36603331 31.29974864 21.37869263 32.88710022 C21.40675944 37.17795769 21.40438156 41.4683139 21.39639878 45.75923538 C21.39326721 50.25029065 21.41832711 54.74118809 21.44035339 59.23217773 C21.47776141 67.72823047 21.48993947 76.22412316 21.4929778 84.72025013 C21.49767214 94.39626562 21.53060754 104.07212112 21.56587565 113.74806595 C21.63776614 133.64452578 21.6743199 153.54092032 21.6875 173.4375 C22.31914063 173.17195312 22.95078125 172.90640625 23.6015625 172.6328125 C31.19971441 169.63296578 38.58788008 168.33614396 46.6875 167.4375 C46.68381283 166.65119957 46.68012566 165.86489914 46.67632675 165.05477142 C46.58792738 145.90811337 46.52176687 126.76149613 46.48025131 107.61467743 C46.45964023 98.35534834 46.43154746 89.09615562 46.38574219 79.83691406 C46.34582987 71.76503612 46.32005662 63.69325694 46.31114602 55.62128305 C46.3059387 51.34856849 46.29373006 47.07613645 46.26457977 42.80351257 C46.23734109 38.77829819 46.22907196 34.75348155 46.23506927 30.72818375 C46.2339728 29.25441956 46.22606911 27.78064147 46.2106781 26.30695724 C46.13125883 18.30723745 46.14087191 12.18912532 50.6875 5.4375 C58.42014384 -0.71705326 67.23551527 -0.4826226 76.6875 0.4375 C89.19179148 2.72829556 101.71764752 9.3921651 109.6875 19.4375 C115.03688048 27.51729343 116.77749762 35.00690645 115.3671875 44.62109375 C114.50460668 47.83451104 113.57044366 49.80814813 110.82421875 51.765625 C108.15589618 53.11099772 105.43862432 54.27014948 102.6875 55.4375 C88.09262419 62.20208511 75.4228148 68.91975336 68.75 84.5 C67.14773924 89.46700834 66.55626492 94.5961349 68.51953125 99.52734375 C70.46464035 103.10412867 70.46464035 103.10412867 73.6875 105.4375 C75.76314676 105.63508231 75.76314676 105.63508231 78.0625 105.625 C78.83335937 105.63917969 79.60421875 105.65335937 80.3984375 105.66796875 C82.93785903 105.4122932 84.52004159 104.76364232 86.6875 103.4375 C88.44838657 100.89399717 88.76946976 98.90925043 89.25 95.8125 C90.92036469 89.15578737 95.73883316 83.85231798 101.53027344 80.31054688 C105.55903941 78.1352896 109.71336192 76.23325648 113.86669922 74.31054688 C123.13077238 69.86856168 130.26441383 63.78789915 133.89941406 54.02734375 C134.89096101 51.18267002 135.80213213 48.31677485 136.6875 45.4375 C137.0175 44.4475 137.3475 43.4575 137.6875 42.4375 C144.39232048 44.53640033 147.30889611 49.54786692 150.6875 55.4375 C155.89003714 68.11777854 155.94786241 79.55497556 151.6875 92.4375 C152.41582031 92.68886719 153.14414062 92.94023437 153.89453125 93.19921875 C167.64837337 99.29707603 178.40773361 116.88609961 183.6875 130.4375 C188.67566136 147.75354587 187.29973415 164.98413092 180.84765625 181.71484375 C179.6875 183.4375 179.6875 183.4375 177.85546875 184.359375 C174.84300187 184.46793237 173.43972335 183.39557045 170.9375 181.75 C162.1646212 176.19770813 152.50131003 170.45529526 141.6875 172.4375 C138.62035992 174.15996489 136.28407021 176.24435958 134.6875 179.4375 C134.31072997 184.42970285 134.61353639 187.41770143 137.6875 191.4375 C139.93059781 192.55904891 141.32505711 192.56616132 143.8125 192.6875 C151.18978281 193.44657733 157.05412148 197.7744818 161.6875 203.4375 C165.66270096 209.87602222 166.76491631 215.97119401 165.6875 223.4375 C162.22421287 237.75037691 155.53988674 248.47102238 144.6875 258.4375 C142.87068036 255.71227054 142.1600718 254.02610484 141.3203125 250.9453125 C140.95099609 249.64013672 140.95099609 249.64013672 140.57421875 248.30859375 C140.06897454 246.48712361 139.5689168 244.66420638 139.07421875 242.83984375 C137.66967076 237.91300962 136.40623101 234.15623101 132.6875 230.4375 C128.97994914 228.58372457 124.73427343 228.98502612 120.6875 229.4375 C117.19761156 231.32785624 116.0444098 232.70745722 114.3125 236.25 C112.91572927 243.3735307 115.49947883 248.67406058 118.53125 254.984375 C121.74326773 261.79906127 121.74674935 269.81593438 120.07421875 277.11328125 C117.15417587 284.56132013 111.40424598 289.33592052 104.3125 292.75 C95.12175616 296.38865626 86.46854928 297.08092833 76.6875 295.4375 C74.3046875 294.390625 74.3046875 294.390625 72.6875 293.4375 C74.06600972 289.23873643 75.54066004 285.0862102 77.0625 280.9375 C82.24373032 266.37854581 85.59783743 251.5568282 88.6875 236.4375 C88.89632812 235.46941406 89.10515625 234.50132812 89.3203125 233.50390625 C89.92304327 228.47046312 89.87195465 223.43941992 89.875 218.375 C89.88724609 217.29927734 89.89949219 216.22355469 89.91210938 215.11523438 C89.91404297 214.07560547 89.91597656 213.03597656 89.91796875 211.96484375 C89.92207764 211.02374756 89.92618652 210.08265137 89.93041992 209.11303711 C89.6638938 206.1774996 89.03012883 204.05778714 87.6875 201.4375 C68.30445542 191.65706466 32.62267948 202.27439384 13.30664062 208.53515625 C-11.07791254 216.9360985 -32.47906691 230.26284641 -52.0625 246.875 C-52.93998901 247.61931274 -52.93998901 247.61931274 -53.83520508 248.37866211 C-56.6948215 250.85812523 -59.1982401 253.28844388 -61.3125 256.4375 C-68.72556566 255.19346829 -74.8339755 248.50455075 -79.1875 242.75 C-86.47199954 231.45299834 -88.19480369 218.19972662 -85.6875 205.0625 C-81.97299857 195.26972351 -75.28804766 188.06780885 -65.8125 183.5 C-61.64670559 182.10308691 -57.45943426 182.39620972 -53.125 182.5 C-42.2916637 182.73827678 -32.73972547 180.72268253 -24.3125 173.48828125 C-16.51166104 165.48937411 -12.25117091 157.50730786 -11.875 146.375 C-12.0142977 140.46117938 -12.54740521 137.01666934 -16.3125 132.4375 C-19.73176265 129.49313494 -22.79806837 128.91176761 -27.3125 129.07421875 C-30.60414434 129.67211509 -32.78134144 131.33849046 -35.3125 133.4375 C-36.89537185 136.60324371 -36.61606659 139.98098041 -36.3125 143.4375 C-35.66120203 144.77840759 -34.99736725 146.11342331 -34.3125 147.4375 C-34.3125 151.18481129 -35.20362462 152.32318085 -37.8125 155.0625 C-44.3132767 159.99442259 -51.77549635 160.79890747 -59.6875 160.875 C-72.70976358 161.3174182 -81.51225941 164.91517772 -90.95703125 174.0234375 C-95.70478429 179.15952918 -98.93695957 185.35553515 -102.3125 191.4375 C-109.58845561 188.25327435 -113.99606816 181.1965794 -117.24609375 174.203125 C-122.97498039 159.34579261 -122.84249165 143.21938291 -117.25 128.3125 C-114.35401052 121.81376171 -110.10096725 116.64570768 -105.3125 111.4375 C-104.62285156 110.674375 -103.93320312 109.91125 -103.22265625 109.125 C-101.3125 107.4375 -101.3125 107.4375 -98.3125 107.4375 C-96.8046875 109.16015625 -96.8046875 109.16015625 -95.1875 111.5 C-90.5208056 117.76839883 -84.8565407 122.98628173 -77.3125 125.4375 C-72.72331022 125.77647425 -69.9289058 124.94898566 -66.375 122 C-63.0715407 117.89570208 -62.78580675 114.60505641 -63.3125 109.4375 C-64.21487966 106.54450447 -64.21487966 106.54450447 -66.3125 104.4375 C-67.94020274 103.77313154 -69.57029754 103.11369328 -71.21484375 102.4921875 C-79.03551526 98.56000629 -85.01989137 91.44696191 -88.3125 83.4375 C-91.13753741 74.88901019 -90.08924219 64.08639471 -86.63671875 55.93359375 C-82.82133915 48.74177203 -77.52969556 42.39988187 -70.3125 38.4375 C-67.5703125 37.78125 -67.5703125 37.78125 -65.3125 37.4375 C-65.16554688 38.62085938 -65.01859375 39.80421875 -64.8671875 41.0234375 C-63.41797045 51.61964634 -61.9478696 60.74135867 -53.3125 67.9375 C-47.13960736 71.02394632 -41.96665708 71.70672207 -35.1171875 71.8984375 C-31.63625131 72.56747538 -30.50526148 73.70642546 -28.3125 76.4375 C-27.29690599 78.42962671 -26.29460371 80.4286515 -25.3125 82.4375 C-22.11651935 84.03549033 -18.78927244 83.80523555 -15.3125 83.4375 C-11.14613661 81.67836879 -9.07163121 79.60386339 -7.3125 75.4375 C-6.54909366 69.61652667 -7.34125833 66.0923853 -10.69140625 61.26171875 C-16.08178813 55.19591552 -23.40010157 52.6057393 -31.3125 52.0625 C-35.96635704 51.64960141 -38.76082678 50.64266852 -42.3125 47.4375 C-45.34721822 42.56597865 -45.82888024 38.63711445 -45.75 33.0625 C-45.74097656 32.30662598 -45.73195313 31.55075195 -45.72265625 30.77197266 C-45.47638809 22.86915884 -43.51263786 18.32263326 -37.8125 12.8125 C-26.66762422 3.75599612 -14.07990827 0.23127647 0 0 Z " fill="#FCFCFC" transform="translate(624.3125,369.5625)"/>
<path d="M0 0 C0.14414379 6.09608126 -0.20717226 11.60964543 -1.5 17.5625 C-1.76176025 18.77135864 -1.76176025 18.77135864 -2.02880859 20.00463867 C-9.38356216 52.17329318 -23.16068327 79.44646787 -45 104 C-45.92280762 105.05743408 -45.92280762 105.05743408 -46.86425781 106.13623047 C-51.23335305 111.08473619 -55.76116334 115.82173766 -60.4609375 120.453125 C-61.02333633 121.00770889 -61.58573517 121.56229279 -62.16517639 122.13368225 C-64.49174918 124.42363136 -66.82114058 126.71053638 -69.15966797 128.98828125 C-70.89191971 130.67809688 -72.61448179 132.37732186 -74.3359375 134.078125 C-74.86093842 134.584505 -75.38593933 135.09088501 -75.92684937 135.61260986 C-81.67761855 141.32294294 -83.44088273 146.15651476 -83.4765625 154.14453125 C-83.49993179 155.29836555 -83.49993179 155.29836555 -83.52377319 156.47550964 C-83.57101558 158.9211626 -83.59892519 161.36653804 -83.625 163.8125 C-83.66177368 166.24754653 -83.70270726 168.68244605 -83.74765015 171.11735535 C-83.77436448 172.62663642 -83.79592716 174.1360217 -83.81118774 175.64546204 C-84.10135112 195.45786878 -93.81894521 205.0790464 -107.43359375 218.3984375 C-109.17203434 220.17589546 -110.76767139 222.04092547 -112.375 223.9375 C-122.36247047 235.38054352 -122.36247047 235.38054352 -127.12890625 236.5 C-129.0625 236.5 -129.0625 236.5 -132 236 C-134.44961764 232.1416279 -134.63627458 227.95138716 -135.0703125 223.515625 C-135.15626678 222.70003113 -135.24222107 221.88443726 -135.33078003 221.04412842 C-135.60282095 218.4467831 -135.86404664 215.84848035 -136.125 213.25 C-136.30788099 211.48560306 -136.49146663 209.721279 -136.67578125 207.95703125 C-137.12535934 203.63882305 -137.56524308 199.31972452 -138 195 C-138.88474503 195.0895697 -139.76949005 195.1791394 -140.68104553 195.27142334 C-144.94885646 194.92240274 -146.10048887 193.65374504 -149.10327148 190.65722656 C-149.57392532 190.19548035 -150.04457916 189.73373413 -150.52949524 189.25799561 C-152.07530647 187.7334308 -153.59831824 186.18817313 -155.12109375 184.640625 C-156.19013682 183.57308446 -157.26014348 182.50650809 -158.33106995 181.44085693 C-160.56891633 179.20733895 -162.79582901 176.96360926 -165.01538086 174.71191406 C-167.86408446 171.82335776 -170.7367408 168.96010238 -173.61773586 166.1037941 C-175.82913815 163.90655509 -178.02827557 161.69736766 -180.22377205 159.4842453 C-181.27881719 158.42334277 -182.33746769 157.36601334 -183.39971733 156.31232452 C-184.87986108 154.84015022 -186.34294348 153.3529106 -187.80249023 151.86035156 C-188.63932846 151.01651917 -189.47616669 150.17268677 -190.33836365 149.30328369 C-192 147 -192 147 -191.82484436 144.88372803 C-191.55264572 144.26209778 -191.28044708 143.64046753 -191 143 C-190.67 142.01 -190.34 141.02 -190 140 C-190.71663818 140.16145508 -191.43327637 140.32291016 -192.17163086 140.48925781 C-201.87315282 142.24114249 -212.02288776 140.67578057 -221.72973633 139.51074219 C-223.95690007 139.2477088 -226.18594711 139.01041428 -228.41601562 138.7734375 C-229.84914183 138.60572731 -231.28209279 138.43651125 -232.71484375 138.265625 C-233.99480225 138.11899414 -235.27476074 137.97236328 -236.59350586 137.82128906 C-240.47702255 136.8849922 -242.42027877 136.0693567 -245 133 C-245.14048248 128.72373776 -244.43163138 126.59969483 -241.93334961 123.12866211 C-241.03624268 122.20835205 -240.13913574 121.28804199 -239.21484375 120.33984375 C-238.48212502 119.57727516 -238.48212502 119.57727516 -237.73460388 118.79930115 C-236.17220494 117.18314543 -234.58876148 115.59021445 -233 114 C-231.97002372 112.95608047 -230.94023703 111.91197383 -229.91064453 110.86767578 C-226.81551608 107.74467376 -223.69189714 104.65111058 -220.5625 101.5625 C-218.45665052 99.48345631 -216.35431814 97.4009416 -214.25390625 95.31640625 C-212.88214233 93.96204468 -212.88214233 93.96204468 -211.48266602 92.58032227 C-208.98273576 90.09711068 -208.98273576 90.09711068 -207.10913086 87.41772461 C-203.65924011 83.4630692 -200.4896418 81.32332497 -195.30984497 80.65063477 C-192.05531643 80.50754827 -188.82389698 80.4989568 -185.56640625 80.53125 C-184.3745018 80.52420044 -183.18259735 80.51715088 -181.95457458 80.5098877 C-176.8754448 80.48046599 -171.79670158 80.49702205 -166.7175293 80.50927734 C-163.00025661 80.5116622 -159.28360209 80.49071785 -155.56640625 80.46875 C-153.85669395 80.48572937 -153.85669395 80.48572937 -152.11244202 80.50305176 C-143.74399392 80.45019997 -138.26786396 79.0727676 -132.12109375 73.29296875 C-131.21571663 72.26728513 -130.32155782 71.23161512 -129.4375 70.1875 C-128.40904423 69.0274646 -127.37765751 67.87002281 -126.34375 66.71484375 C-125.80492187 66.1101123 -125.26609375 65.50538086 -124.7109375 64.88232422 C-116.18189284 55.49891464 -107.07805655 46.70280221 -97 39 C-96.40074707 38.5349707 -95.80149414 38.06994141 -95.18408203 37.59082031 C-67.45086066 16.09187798 -35.81109227 -0.54534658 0 0 Z " fill="#FE404F" transform="translate(684,598)"/>
<path d="M0 0 C0.78100051 -0.00467997 1.56200103 -0.00935994 2.36666822 -0.01418173 C4.96829476 -0.02609154 7.56939061 -0.01669042 10.17102051 -0.00723267 C12.04244798 -0.01130015 13.91387305 -0.01664303 15.78529358 -0.02316284 C20.85756143 -0.03682112 25.92964589 -0.0315439 31.00191689 -0.02202559 C36.31443393 -0.01442131 41.62693545 -0.02147674 46.93945312 -0.02618408 C55.86025812 -0.03163939 64.78098856 -0.0244559 73.70178223 -0.01016235 C84.01002143 0.0061637 94.31808261 0.00087504 104.6263175 -0.01564157 C113.48256118 -0.02926282 122.33875131 -0.03117296 131.19500208 -0.02332556 C136.481914 -0.01865258 141.76874228 -0.01801394 147.0556488 -0.02793503 C152.02646643 -0.03661167 156.99705491 -0.03056992 161.96784782 -0.01325226 C163.79032448 -0.00929116 165.61282047 -0.010415 167.43528938 -0.01704025 C169.92660089 -0.02526081 172.41718205 -0.01492835 174.90844727 0 C175.98545686 -0.01003825 175.98545686 -0.01003825 177.08422422 -0.02027929 C183.40975935 0.05303913 187.86473163 1.66292417 192.76672363 5.69345093 C196.07529011 9.75826117 197.22492069 13.18742703 196.82922363 18.38095093 C196.12867052 22.50555576 194.7660137 25.20867495 191.95422363 28.38095093 C186.77187536 31.81287154 181.95789445 32.96591469 175.75695801 32.8888855 C174.97172508 32.89512546 174.18649216 32.90136542 173.37746429 32.90779448 C170.76732129 32.92364726 168.15812223 32.91115106 165.54797363 32.89852905 C163.66816669 32.90395362 161.78836401 32.91107815 159.90856934 32.91976929 C154.81765264 32.93796576 149.72706111 32.93095025 144.63613892 32.91825294 C139.30140322 32.90810625 133.96669483 32.91752326 128.63195801 32.92379761 C119.67422502 32.93106914 110.71662406 32.92149924 101.75891113 32.9024353 C91.41142953 32.88066756 81.06426321 32.88771928 70.71678925 32.90974092 C61.82313087 32.92790896 52.92956725 32.93044636 44.0358963 32.91998625 C38.72826471 32.91375906 33.42078118 32.91289442 28.11315918 32.9261322 C23.12256149 32.93771046 18.13236921 32.92962875 13.14181519 32.90655518 C11.31331047 32.90127866 9.48477147 32.90276372 7.65628052 32.91160583 C5.15422715 32.92258706 2.65346127 32.90876777 0.15148926 32.8888855 C-0.92596432 32.90226983 -0.92596432 32.90226983 -2.02518463 32.91592455 C-8.69379677 32.81360103 -13.87515417 30.55157312 -18.54577637 25.88095093 C-20.9717032 20.22045498 -21.47200311 13.97807147 -19.16296387 8.15438843 C-14.71181711 1.22710705 -7.80019505 -0.07270157 0 0 Z " fill="#F6F7F9" transform="translate(316.0457763671875,341.6190490722656)"/>
<path d="M0 0 C5.7477537 4.77521732 11.03085133 9.90085603 16.29663086 15.19897461 C17.68583599 16.59042128 19.07504126 17.98186782 20.46425164 19.37330925 C21.94512557 20.85753675 23.42474502 22.34300435 24.90400505 23.82884026 C27.9998313 26.93828495 31.09955404 30.04382607 34.19984436 33.14881897 C41.34042507 40.30140069 48.47597281 47.45899647 55.61145782 54.61666107 C62.15318557 61.17862217 68.69599822 67.73949192 75.2428866 74.29630476 C78.31797125 77.37634033 81.39060849 80.45878968 84.46132839 83.54317653 C85.91534114 85.00288557 87.37052128 86.46141893 88.82621765 87.91944885 C90.59175114 89.68782559 92.35550967 91.45797719 94.11703491 93.23034668 C98.42992269 97.54361843 102.81137897 101.67804726 107.48372746 105.60138798 C109 107 109 107 110 109 C98.53404609 109.06961532 87.06814275 109.12286987 75.60202026 109.15543652 C70.27741004 109.17106956 64.95294478 109.19226479 59.62841797 109.22631836 C54.48666973 109.25899588 49.34506065 109.27687077 44.20321655 109.28463173 C42.2448813 109.29016017 40.28655336 109.30095584 38.32827759 109.31719017 C35.57806137 109.33907598 32.82841477 109.34196227 30.078125 109.34057617 C29.27467148 109.351362 28.47121796 109.36214783 27.64341736 109.3732605 C19.91613985 109.33132203 13.37615954 107.15709684 7.60546875 101.875 C1.19158979 94.38433844 -0.15769343 86.17308992 -0.11352539 76.62963867 C-0.11367142 75.79985504 -0.11381744 74.97007141 -0.1139679 74.11514282 C-0.11327333 71.38272453 -0.10550229 68.65037508 -0.09765625 65.91796875 C-0.09579045 64.0193943 -0.09436731 62.12081937 -0.09336853 60.22224426 C-0.0895561 55.23278466 -0.0797367 50.24335432 -0.06866455 45.25390625 C-0.05842303 40.15950923 -0.05386504 35.06510748 -0.04882812 29.97070312 C-0.03811328 19.98045592 -0.02105216 9.9902304 0 0 Z " fill="#FCFCFD" transform="translate(582,206)"/>
<path d="M0 0 C1.22944336 -0.0071553 2.45888672 -0.01431061 3.72558594 -0.02168274 C5.09043859 -0.02452298 6.45529151 -0.02723471 7.82014465 -0.02983093 C9.25586613 -0.0360967 10.69158599 -0.0427436 12.12730408 -0.04974365 C16.84497449 -0.07077594 21.5626452 -0.08114638 26.28034973 -0.09111023 C27.90565317 -0.09515833 29.53095644 -0.09927526 31.15625954 -0.10346031 C38.79368279 -0.12251145 46.4310964 -0.13674172 54.06853884 -0.14507228 C62.87755118 -0.15483987 71.68631192 -0.18114708 80.49523562 -0.22157317 C87.30810576 -0.25176315 94.1209039 -0.26654395 100.93383962 -0.26985329 C105.00081853 -0.27220083 109.06752864 -0.28112211 113.13443565 -0.30631447 C116.96355025 -0.32965037 120.79222012 -0.33380654 124.62138748 -0.32355309 C126.02258219 -0.32305892 127.4237992 -0.32934414 128.82492638 -0.34310913 C136.66203856 -0.4157606 142.4854866 -0.25697238 149.11238098 4.14717102 C153.03194057 8.5867706 153.6982725 12.95000405 153.43269348 18.78388977 C152.79149581 23.51467744 151.07258014 26.2589868 147.61238098 29.45967102 C143.68665724 32.10953455 140.72802356 32.27627983 136.09741211 32.29434204 C134.2110479 32.305075 134.2110479 32.305075 132.28657532 32.31602478 C130.89021326 32.318865 129.49385094 32.32157673 128.0974884 32.32417297 C126.62896565 32.33043849 125.16044448 32.33708537 123.69192505 32.34408569 C118.86724449 32.36511608 114.04256364 32.37548636 109.21784973 32.38545227 C107.55659277 32.38950005 105.89533598 32.39361698 104.23407936 32.39780235 C96.43007214 32.41685091 88.62607436 32.43108326 80.82204837 32.43941432 C71.81435691 32.44918925 62.80691102 32.47551671 53.79930609 32.51591522 C46.83615001 32.54607276 39.87306435 32.56088281 32.90984422 32.56419533 C28.75126996 32.56654604 24.59295816 32.57550903 20.43445396 32.60065651 C16.52162913 32.62393643 12.60923958 32.62817102 8.69636345 32.61789513 C7.26207786 32.61739965 5.82777085 32.62372379 4.39355087 32.63745117 C-9.02192821 32.75864822 -9.02192821 32.75864822 -13.88761902 28.14717102 C-17.31678974 24.44727629 -18.1873165 21.56793612 -18.38761902 16.64717102 C-18.19410595 11.72927 -17.25767813 8.88156085 -13.88761902 5.14717102 C-9.27529166 0.98482682 -6.13178221 0.02446982 0 0 Z " fill="#FCFDFD" transform="translate(313.8876190185547,435.8528289794922)"/>
<path d="M0 0 C1.09193161 -0.00540298 2.18386322 -0.01080597 3.30888367 -0.01637268 C6.90607084 -0.0288451 10.50245536 -0.0123778 14.09960938 0.00561523 C16.60632367 0.00546021 19.1130382 0.00397072 21.61975098 0.00120544 C26.86849685 -0.00017789 32.11703614 0.01193239 37.36572266 0.03515625 C43.42055325 0.06176283 49.47500053 0.0635112 55.52986956 0.05176789 C61.37170352 0.04096157 67.2133983 0.04730199 73.05522156 0.06132317 C75.53349913 0.06583365 78.01178795 0.06617799 80.49006653 0.06225777 C83.95585088 0.05934165 87.42101309 0.07587283 90.88671875 0.09765625 C91.90718796 0.0931546 92.92765717 0.08865295 93.97904968 0.08401489 C100.34387197 0.15035271 105.70910324 0.6517927 110.68554688 5.03686523 C114.68666262 10.43147301 115.88219455 13.80183975 114.94335938 20.50170898 C113.26665969 24.69345819 111.32958679 27.5902562 107.53479004 30.08535767 C102.56350519 32.04588162 98.09866056 31.9206991 92.80078125 31.88989258 C91.68788223 31.89514954 90.57498322 31.90040649 89.42835999 31.90582275 C85.75613294 31.91900735 82.0843407 31.91028973 78.41210938 31.90014648 C75.8567293 31.90216765 73.30134978 31.90507945 70.74597168 31.90884399 C65.39292369 31.91326528 60.04003099 31.90712948 54.68701172 31.89282227 C48.5077955 31.87649704 42.32887629 31.88178608 36.14966726 31.89830148 C30.19306064 31.91358164 24.2365459 31.9119315 18.27992249 31.90315628 C15.75057432 31.9011557 13.22121858 31.90360853 10.69187927 31.91059494 C7.15636139 31.91821752 3.621413 31.90659297 0.0859375 31.88989258 C-1.48056801 31.89900162 -1.48056801 31.89900162 -3.07872009 31.90829468 C-8.48214884 31.86103461 -12.41900204 31.60069448 -17.05664062 28.50170898 C-21.72595024 23.32760914 -22.41951687 20.10549189 -22.33007812 13.26342773 C-21.94044201 9.32810295 -20.77015473 7.35437766 -18.05664062 4.50170898 C-12.05374234 0.18639122 -7.27057193 -0.06888171 0 0 Z " fill="#FCFCFD" transform="translate(318.056640625,531.498291015625)"/>
<path d="M0 0 C5.20340636 4.34974558 10.05612839 8.92219212 14.83203125 13.734375 C15.9087635 14.81322968 15.9087635 14.81322968 17.00724792 15.91387939 C19.27804546 18.19022817 21.54532525 20.4700436 23.8125 22.75 C25.35328291 24.29580491 26.89429637 25.84138005 28.43554688 27.38671875 C31.81042286 30.77138379 35.18309174 34.15823001 38.55378723 37.54705811 C39.7009749 38.69958356 40.85014034 39.85014034 42 41 C23.63100132 58.81820412 -2.23610184 78.92161518 -29.25 79.1875 C-33 79 -33 79 -35 77 C-37.1416696 54.72663613 -23.53859768 28.64999071 -10.21875 11.671875 C-6.91136141 7.68903381 -3.51904694 3.79711877 0 0 Z " fill="#FE6F0F" transform="translate(468,775)"/>
<path d="M0 0 C2.77433923 2.42754682 4.73771147 4.4254429 5.46875 8.1171875 C5.52379938 12.53490034 5.52988457 15.76595974 2.6875 19.3125 C-1.05236108 22.70446703 -3.59107634 22.80234077 -8.4375 22.9375 C-16.47546633 23.5992212 -23.81303718 26.06012993 -29.203125 32.30078125 C-30.38966434 34.02325747 -31.52754825 35.78099707 -32.59765625 37.578125 C-34 39.75 -34 39.75 -37 41.75 C-41.26264558 42.23256365 -43.49132744 42.01873267 -47.3125 40 C-50.30633136 37.49353654 -51.82001067 35.67738571 -52.1875 31.7421875 C-51.44491836 23.35720311 -47.43958738 16.74806403 -41.375 11 C-31.01413767 2.63237023 -13.28196824 -5.53415343 0 0 Z " fill="#081A5A" transform="translate(761,498.25)"/>
<path d="M0 0 C2.88905436 1.30810328 4.94699807 2.70083516 7.17626953 4.94921875 C7.77013458 5.54323486 8.36399963 6.13725098 8.9758606 6.74926758 C9.60515472 7.38888428 10.23444885 8.02850098 10.8828125 8.6875 C11.53829071 9.34580811 12.19376892 10.00411621 12.86911011 10.68237305 C14.95915492 12.7835939 17.04213811 14.89166114 19.125 17 C20.5346947 18.41972927 21.94484587 19.83900545 23.35546875 21.2578125 C26.45704685 24.37904396 29.55419007 27.50459977 32.64749146 30.6340332 C33.76168244 31.75931104 34.88025186 32.88025186 36 34 C34.02 34.66 32.04 35.32 30 36 C29.78988281 34.97567871 29.57976562 33.95135742 29.36328125 32.89599609 C28.06807313 28.39989058 25.50439092 25.84476633 22.1875 22.6640625 C21.61797607 22.09924164 21.04845215 21.53442078 20.46166992 20.95248413 C18.65254814 19.16458526 16.82650395 17.39511847 15 15.625 C13.77234596 14.41386585 12.54577161 13.20163625 11.3203125 11.98828125 C6.11037528 6.37642184 6.11037528 6.37642184 0 2 C0 1.34 0 0.68 0 0 Z " fill="#F67F0A" transform="translate(474,782)"/>
<path d="M0 0 C0.66 0.66 1.32 1.32 2 2 C-1.63 2 -5.26 2 -9 2 C-9.66 3.32 -10.32 4.64 -11 6 C-12.5 7.75 -12.5 7.75 -14 9 C-14.66 9 -15.32 9 -16 9 C-15.76066439 5.7689692 -14.72646062 4.69910669 -12.5 2.25 C-8.72314392 -0.72931608 -4.63397715 -0.88045566 0 0 Z " fill="#0E1850" transform="translate(775,541)"/>
<path d="M0 0 C0.99 0.33 1.98 0.66 3 1 C2.95359375 1.66386719 2.9071875 2.32773437 2.859375 3.01171875 C2.57488443 8.88116257 2.57488443 8.88116257 5 14.125 C5.66 14.74375 6.32 15.3625 7 16 C6.01 16 5.02 16 4 16 C0.22695996 10.45834744 -0.54330269 6.65545792 0 0 Z " fill="#172259" transform="translate(691,458)"/>
<path d="M0 0 C0.33 0 0.66 0 1 0 C1.55571948 2.45592158 2.09497489 4.91352746 2.625 7.375 C2.86476563 8.42300781 2.86476563 8.42300781 3.109375 9.4921875 C3.49427354 11.31170787 3.75556082 13.15634853 4 15 C3.34 15.66 2.68 16.32 2 17 C-0.81115003 10.81546992 -1.27947184 6.65941972 0 0 Z " fill="#121F57" transform="translate(503,528)"/>
<path d="M0 0 C0.33 0.99 0.66 1.98 1 3 C-4.75 8 -4.75 8 -7 8 C-7.66 9.32 -8.32 10.64 -9 12 C-9.99 11.67 -10.98 11.34 -12 11 C-8.04 7.37 -4.08 3.74 0 0 Z " fill="#F0434D" transform="translate(583,640)"/>
<path d="M0 0 C0.66 0.33 1.32 0.66 2 1 C0.33333333 4.33333333 -1.33333333 7.66666667 -3 11 C-3.66 11 -4.32 11 -5 11 C-4.54663921 6.12637153 -3.2910841 3.60957611 0 0 Z " fill="#13185F" transform="translate(605,736)"/>
<path d="M0 0 C4.2742558 1.5830577 6.26531794 4.50568404 9 8 C6 8 6 8 4.39453125 6.7578125 C3.87246094 6.21898437 3.35039063 5.68015625 2.8125 5.125 C2.28269531 4.59132813 1.75289062 4.05765625 1.20703125 3.5078125 C0 2 0 2 0 0 Z " fill="#242E5E" transform="translate(676,298)"/>
<path d="M0 0 C0.33 0 0.66 0 1 0 C1 1.65 1 3.3 1 5 C-0.98 5.66 -2.96 6.32 -5 7 C-4.19152271 5.83054208 -3.37810888 4.66449539 -2.5625 3.5 C-2.11003906 2.8503125 -1.65757812 2.200625 -1.19140625 1.53125 C-0.79824219 1.0259375 -0.40507813 0.520625 0 0 Z " fill="#131A60" transform="translate(648,690)"/>
</svg>
